# xmcd
#
# Track frame offsets:
#	150
#	12052
#	34132
#	43720
#	57725
#	68810
#	82125
#	92642
#	114010
#	126010
#	139080
#	150987
#	172422
#	184877
#	202972
#	213537
#	224325
#	234880
#
# Disc length: 3289
#
# Revision: 3
# Processed by: cddbd v1.5.1PL0 Copyright (c) Steve Scherf et al.
# Submitted via: EasyCD2 v3.00 - Copyright (c) 1997 Greg Leichner
# Normalized: r1:TSWAP
#
DISCID=fd0cd712
DTITLE=Soul Music Collection - 2. - L'epopea della Stax
DYEAR=1900
DGENRE=
TTITLE0=Sam and Dave - Soul Man
TTITLE1=The Staple Singers - Respect Yourself
TTITLE2=Otis Redding - Respect
TTITLE3=Eddie Floyd - Knock On Wood
TTITLE4=Rufus Thomas - Can Your Monkey Do The Dog
TTITLE5=Carla Thomas - B.A.B.Y.
TTITLE6=The Bar-Kays - Soul Finger
TTITLE7=Albert King - Oh, Pretty Woman
TTITLE8=Otis Redding - Fa-Fa-Fa-Fa-Fa- (Sad Song)
TTITLE9=Sam and Dave - I Thank You
TTITLE10=The Mar-Keys - Last Night
TTITLE11=The Staple Singers - I'll Take You There
TTITLE12=Rufus and Carla Thomas - 'Cause I Love You
TTITLE13=Otis Redding - Try A Little Tenderness
TTITLE14=William Bell - I Forgot To Be Your Lover
TTITLE15=Booker T. and The Mg's - Soul Limbo
TTITLE16=Carla Thomas - Gee Whiz
TTITLE17=Otis Redding - Mr. Pitiful
EXTD=
EXTT0=
EXTT1=
EXTT2=
EXTT3=
EXTT4=
EXTT5=
EXTT6=
EXTT7=
EXTT8=
EXTT9=
EXTT10=
EXTT11=
EXTT12=
EXTT13=
EXTT14=
EXTT15=
EXTT16=
EXTT17=
PLAYORDER=
